<svg xmlns="http://www.w3.org/2000/svg" viewBox="0 -0.5 640 640" shape-rendering="crispEdges">
<metadata>Made with Pixels to Svg https://codepen.io/shshaw/pen/XbxvNj</metadata>
<path stroke="#ffffff" d="M480 20h80M480 21h80M480 22h80M480 23h80M480 24h80M480 25h80M480 26h80M480 27h80M480 28h80M480 29h80M480 30h80M480 31h80M480 32h80M480 33h80M480 34h80M480 35h80M480 36h80M480 37h80M480 38h80M480 39h80M460 40h20M560 40h20M460 41h20M560 41h20M460 42h20M560 42h20M460 43h20M560 43h20M460 44h20M560 44h20M460 45h20M560 45h20M460 46h20M560 46h20M460 47h20M560 47h20M460 48h20M560 48h20M460 49h20M560 49h20M460 50h20M560 50h20M460 51h20M560 51h20M460 52h20M560 52h20M460 53h20M560 53h20M460 54h20M560 54h20M460 55h20M560 55h20M460 56h20M560 56h20M460 57h20M560 57h20M460 58h20M560 58h20M460 59h20M560 59h20M440 60h20M580 60h20M440 61h20M580 61h20M440 62h20M580 62h20M440 63h20M580 63h20M440 64h20M580 64h20M440 65h20M580 65h20M440 66h20M580 66h20M440 67h20M580 67h20M440 68h20M580 68h20M440 69h20M580 69h20M440 70h20M580 70h20M440 71h20M580 71h20M440 72h20M580 72h20M440 73h20M580 73h20M440 74h20M580 74h20M440 75h20M580 75h20M440 76h20M580 76h20M440 77h20M580 77h20M440 78h20M580 78h20M440 79h20M580 79h20M420 80h20M540 80h20M600 80h20M420 81h20M540 81h20M600 81h20M420 82h20M540 82h20M600 82h20M420 83h20M540 83h20M600 83h20M420 84h20M540 84h20M600 84h20M420 85h20M540 85h20M600 85h20M420 86h20M540 86h20M600 86h20M420 87h20M540 87h20M600 87h20M420 88h20M540 88h20M600 88h20M420 89h20M540 89h20M600 89h20M420 90h20M540 90h20M600 90h20M420 91h20M540 91h20M600 91h20M420 92h20M540 92h20M600 92h20M420 93h20M540 93h20M600 93h20M420 94h20M540 94h20M600 94h20M420 95h20M540 95h20M600 95h20M420 96h20M540 96h20M600 96h20M420 97h20M540 97h20M600 97h20M420 98h20M540 98h20M600 98h20M420 99h20M540 99h20M600 99h20M420 100h20M600 100h20M420 101h20M600 101h20M420 102h20M600 102h20M420 103h20M600 103h20M420 104h20M600 104h20M420 105h20M600 105h20M420 106h20M600 106h20M420 107h20M600 107h20M420 108h20M600 108h20M420 109h20M600 109h20M420 110h20M600 110h20M420 111h20M600 111h20M420 112h20M600 112h20M420 113h20M600 113h20M420 114h20M600 114h20M420 115h20M600 115h20M420 116h20M600 116h20M420 117h20M600 117h20M420 118h20M600 118h20M420 119h20M600 119h20M220 120h100M420 120h20M600 120h20M220 121h100M420 121h20M600 121h20M220 122h100M420 122h20M600 122h20M220 123h100M420 123h20M600 123h20M220 124h100M420 124h20M600 124h20M220 125h100M420 125h20M600 125h20M220 126h100M420 126h20M600 126h20M220 127h100M420 127h20M600 127h20M220 128h100M420 128h20M600 128h20M220 129h100M420 129h20M600 129h20M220 130h100M420 130h20M600 130h20M220 131h100M420 131h20M600 131h20M220 132h100M420 132h20M600 132h20M220 133h100M420 133h20M600 133h20M220 134h100M420 134h20M600 134h20M220 135h100M420 135h20M600 135h20M220 136h100M420 136h20M600 136h20M220 137h100M420 137h20M600 137h20M220 138h100M420 138h20M600 138h20M220 139h100M420 139h20M600 139h20M180 140h40M320 140h40M420 140h20M600 140h20M180 141h40M320 141h40M420 141h20M600 141h20M180 142h40M320 142h40M420 142h20M600 142h20M180 143h40M320 143h40M420 143h20M600 143h20M180 144h40M320 144h40M420 144h20M600 144h20M180 145h40M320 145h40M420 145h20M600 145h20M180 146h40M320 146h40M420 146h20M600 146h20M180 147h40M320 147h40M420 147h20M600 147h20M180 148h40M320 148h40M420 148h20M600 148h20M180 149h40M320 149h40M420 149h20M600 149h20M180 150h40M320 150h40M420 150h20M600 150h20M180 151h40M320 151h40M420 151h20M600 151h20M180 152h40M320 152h40M420 152h20M600 152h20M180 153h40M320 153h40M420 153h20M600 153h20M180 154h40M320 154h40M420 154h20M600 154h20M180 155h40M320 155h40M420 155h20M600 155h20M180 156h40M320 156h40M420 156h20M600 156h20M180 157h40M320 157h40M420 157h20M600 157h20M180 158h40M320 158h40M420 158h20M600 158h20M180 159h40M320 159h40M420 159h20M600 159h20M160 160h20M360 160h20M440 160h20M580 160h20M160 161h20M360 161h20M440 161h20M580 161h20M160 162h20M360 162h20M440 162h20M580 162h20M160 163h20M360 163h20M440 163h20M580 163h20M160 164h20M360 164h20M440 164h20M580 164h20M160 165h20M360 165h20M440 165h20M580 165h20M160 166h20M360 166h20M440 166h20M580 166h20M160 167h20M360 167h20M440 167h20M580 167h20M160 168h20M360 168h20M440 168h20M580 168h20M160 169h20M360 169h20M440 169h20M580 169h20M160 170h20M360 170h20M440 170h20M580 170h20M160 171h20M360 171h20M440 171h20M580 171h20M160 172h20M360 172h20M440 172h20M580 172h20M160 173h20M360 173h20M440 173h20M580 173h20M160 174h20M360 174h20M440 174h20M580 174h20M160 175h20M360 175h20M440 175h20M580 175h20M160 176h20M360 176h20M440 176h20M580 176h20M160 177h20M360 177h20M440 177h20M580 177h20M160 178h20M360 178h20M440 178h20M580 178h20M160 179h20M360 179h20M440 179h20M580 179h20M140 180h20M380 180h20M460 180h20M560 180h20M140 181h20M380 181h20M460 181h20M560 181h20M140 182h20M380 182h20M460 182h20M560 182h20M140 183h20M380 183h20M460 183h20M560 183h20M140 184h20M380 184h20M460 184h20M560 184h20M140 185h20M380 185h20M460 185h20M560 185h20M140 186h20M380 186h20M460 186h20M560 186h20M140 187h20M380 187h20M460 187h20M560 187h20M140 188h20M380 188h20M460 188h20M560 188h20M140 189h20M380 189h20M460 189h20M560 189h20M140 190h20M380 190h20M460 190h20M560 190h20M140 191h20M380 191h20M460 191h20M560 191h20M140 192h20M380 192h20M460 192h20M560 192h20M140 193h20M380 193h20M460 193h20M560 193h20M140 194h20M380 194h20M460 194h20M560 194h20M140 195h20M380 195h20M460 195h20M560 195h20M140 196h20M380 196h20M460 196h20M560 196h20M140 197h20M380 197h20M460 197h20M560 197h20M140 198h20M380 198h20M460 198h20M560 198h20M140 199h20M380 199h20M460 199h20M560 199h20M120 200h20M340 200h20M400 200h20M480 200h80M120 201h20M340 201h20M400 201h20M480 201h80M120 202h20M340 202h20M400 202h20M480 202h80M120 203h20M340 203h20M400 203h20M480 203h80M120 204h20M340 204h20M400 204h20M480 204h80M120 205h20M340 205h20M400 205h20M480 205h80M120 206h20M340 206h20M400 206h20M480 206h80M120 207h20M340 207h20M400 207h20M480 207h80M120 208h20M340 208h20M400 208h20M480 208h80M120 209h20M340 209h20M400 209h20M480 209h80M120 210h20M340 210h20M400 210h20M480 210h80M120 211h20M340 211h20M400 211h20M480 211h80M120 212h20M340 212h20M400 212h20M480 212h80M120 213h20M340 213h20M400 213h20M480 213h80M120 214h20M340 214h20M400 214h20M480 214h80M120 215h20M340 215h20M400 215h20M480 215h80M120 216h20M340 216h20M400 216h20M480 216h80M120 217h20M340 217h20M400 217h20M480 217h80M120 218h20M340 218h20M400 218h20M480 218h80M120 219h20M340 219h20M400 219h20M480 219h80M120 220h20M360 220h20M400 220h20M120 221h20M360 221h20M400 221h20M120 222h20M360 222h20M400 222h20M120 223h20M360 223h20M400 223h20M120 224h20M360 224h20M400 224h20M120 225h20M360 225h20M400 225h20M120 226h20M360 226h20M400 226h20M120 227h20M360 227h20M400 227h20M120 228h20M360 228h20M400 228h20M120 229h20M360 229h20M400 229h20M120 230h20M360 230h20M400 230h20M120 231h20M360 231h20M400 231h20M120 232h20M360 232h20M400 232h20M120 233h20M360 233h20M400 233h20M120 234h20M360 234h20M400 234h20M120 235h20M360 235h20M400 235h20M120 236h20M360 236h20M400 236h20M120 237h20M360 237h20M400 237h20M120 238h20M360 238h20M400 238h20M120 239h20M360 239h20M400 239h20M100 240h20M420 240h20M100 241h20M420 241h20M100 242h20M420 242h20M100 243h20M420 243h20M100 244h20M420 244h20M100 245h20M420 245h20M100 246h20M420 246h20M100 247h20M420 247h20M100 248h20M420 248h20M100 249h20M420 249h20M100 250h20M420 250h20M100 251h20M420 251h20M100 252h20M420 252h20M100 253h20M420 253h20M100 254h20M420 254h20M100 255h20M420 255h20M100 256h20M420 256h20M100 257h20M420 257h20M100 258h20M420 258h20M100 259h20M420 259h20M100 260h20M420 260h20M100 261h20M420 261h20M100 262h20M420 262h20M100 263h20M420 263h20M100 264h20M420 264h20M100 265h20M420 265h20M100 266h20M420 266h20M100 267h20M420 267h20M100 268h20M420 268h20M100 269h20M420 269h20M100 270h20M420 270h20M100 271h20M420 271h20M100 272h20M420 272h20M100 273h20M420 273h20M100 274h20M420 274h20M100 275h20M420 275h20M100 276h20M420 276h20M100 277h20M420 277h20M100 278h20M420 278h20M100 279h20M420 279h20M100 280h20M420 280h20M100 281h20M420 281h20M100 282h20M420 282h20M100 283h20M420 283h20M100 284h20M420 284h20M100 285h20M420 285h20M100 286h20M420 286h20M100 287h20M420 287h20M100 288h20M420 288h20M100 289h20M420 289h20M100 290h20M420 290h20M100 291h20M420 291h20M100 292h20M420 292h20M100 293h20M420 293h20M100 294h20M420 294h20M100 295h20M420 295h20M100 296h20M420 296h20M100 297h20M420 297h20M100 298h20M420 298h20M100 299h20M420 299h20M100 300h20M420 300h20M100 301h20M420 301h20M100 302h20M420 302h20M100 303h20M420 303h20M100 304h20M420 304h20M100 305h20M420 305h20M100 306h20M420 306h20M100 307h20M420 307h20M100 308h20M420 308h20M100 309h20M420 309h20M100 310h20M420 310h20M100 311h20M420 311h20M100 312h20M420 312h20M100 313h20M420 313h20M100 314h20M420 314h20M100 315h20M420 315h20M100 316h20M420 316h20M100 317h20M420 317h20M100 318h20M420 318h20M100 319h20M420 319h20M100 320h20M420 320h20M100 321h20M420 321h20M100 322h20M420 322h20M100 323h20M420 323h20M100 324h20M420 324h20M100 325h20M420 325h20M100 326h20M420 326h20M100 327h20M420 327h20M100 328h20M420 328h20M100 329h20M420 329h20M100 330h20M420 330h20M100 331h20M420 331h20M100 332h20M420 332h20M100 333h20M420 333h20M100 334h20M420 334h20M100 335h20M420 335h20M100 336h20M420 336h20M100 337h20M420 337h20M100 338h20M420 338h20M100 339h20M420 339h20M120 340h20M400 340h20M120 341h20M400 341h20M120 342h20M400 342h20M120 343h20M400 343h20M120 344h20M400 344h20M120 345h20M400 345h20M120 346h20M400 346h20M120 347h20M400 347h20M120 348h20M400 348h20M120 349h20M400 349h20M120 350h20M400 350h20M120 351h20M400 351h20M120 352h20M400 352h20M120 353h20M400 353h20M120 354h20M400 354h20M120 355h20M400 355h20M120 356h20M400 356h20M120 357h20M400 357h20M120 358h20M400 358h20M120 359h20M400 359h20M120 360h20M400 360h20M120 361h20M400 361h20M120 362h20M400 362h20M120 363h20M400 363h20M120 364h20M400 364h20M120 365h20M400 365h20M120 366h20M400 366h20M120 367h20M400 367h20M120 368h20M400 368h20M120 369h20M400 369h20M120 370h20M400 370h20M120 371h20M400 371h20M120 372h20M400 372h20M120 373h20M400 373h20M120 374h20M400 374h20M120 375h20M400 375h20M120 376h20M400 376h20M120 377h20M400 377h20M120 378h20M400 378h20M120 379h20M400 379h20M140 380h20M380 380h20M140 381h20M380 381h20M140 382h20M380 382h20M140 383h20M380 383h20M140 384h20M380 384h20M140 385h20M380 385h20M140 386h20M380 386h20M140 387h20M380 387h20M140 388h20M380 388h20M140 389h20M380 389h20M140 390h20M380 390h20M140 391h20M380 391h20M140 392h20M380 392h20M140 393h20M380 393h20M140 394h20M380 394h20M140 395h20M380 395h20M140 396h20M380 396h20M140 397h20M380 397h20M140 398h20M380 398h20M140 399h20M380 399h20M160 400h20M360 400h20M160 401h20M360 401h20M160 402h20M360 402h20M160 403h20M360 403h20M160 404h20M360 404h20M160 405h20M360 405h20M160 406h20M360 406h20M160 407h20M360 407h20M160 408h20M360 408h20M160 409h20M360 409h20M160 410h20M360 410h20M160 411h20M360 411h20M160 412h20M360 412h20M160 413h20M360 413h20M160 414h20M360 414h20M160 415h20M360 415h20M160 416h20M360 416h20M160 417h20M360 417h20M160 418h20M360 418h20M160 419h20M360 419h20M40 420h60M180 420h40M320 420h40M40 421h60M180 421h40M320 421h40M40 422h60M180 422h40M320 422h40M40 423h60M180 423h40M320 423h40M40 424h60M180 424h40M320 424h40M40 425h60M180 425h40M320 425h40M40 426h60M180 426h40M320 426h40M40 427h60M180 427h40M320 427h40M40 428h60M180 428h40M320 428h40M40 429h60M180 429h40M320 429h40M40 430h60M180 430h40M320 430h40M40 431h60M180 431h40M320 431h40M40 432h60M180 432h40M320 432h40M40 433h60M180 433h40M320 433h40M40 434h60M180 434h40M320 434h40M40 435h60M180 435h40M320 435h40M40 436h60M180 436h40M320 436h40M40 437h60M180 437h40M320 437h40M40 438h60M180 438h40M320 438h40M40 439h60M180 439h40M320 439h40M20 440h20M100 440h20M220 440h100M20 441h20M100 441h20M220 441h100M20 442h20M100 442h20M220 442h100M20 443h20M100 443h20M220 443h100M20 444h20M100 444h20M220 444h100M20 445h20M100 445h20M220 445h100M20 446h20M100 446h20M220 446h100M20 447h20M100 447h20M220 447h100M20 448h20M100 448h20M220 448h100M20 449h20M100 449h20M220 449h100M20 450h20M100 450h20M220 450h100M20 451h20M100 451h20M220 451h100M20 452h20M100 452h20M220 452h100M20 453h20M100 453h20M220 453h100M20 454h20M100 454h20M220 454h100M20 455h20M100 455h20M220 455h100M20 456h20M100 456h20M220 456h100M20 457h20M100 457h20M220 457h100M20 458h20M100 458h20M220 458h100M20 459h20M100 459h20M220 459h100M0 460h20M80 460h20M120 460h20M0 461h20M80 461h20M120 461h20M0 462h20M80 462h20M120 462h20M0 463h20M80 463h20M120 463h20M0 464h20M80 464h20M120 464h20M0 465h20M80 465h20M120 465h20M0 466h20M80 466h20M120 466h20M0 467h20M80 467h20M120 467h20M0 468h20M80 468h20M120 468h20M0 469h20M80 469h20M120 469h20M0 470h20M80 470h20M120 470h20M0 471h20M80 471h20M120 471h20M0 472h20M80 472h20M120 472h20M0 473h20M80 473h20M120 473h20M0 474h20M80 474h20M120 474h20M0 475h20M80 475h20M120 475h20M0 476h20M80 476h20M120 476h20M0 477h20M80 477h20M120 477h20M0 478h20M80 478h20M120 478h20M0 479h20M80 479h20M120 479h20M0 480h20M120 480h20M0 481h20M120 481h20M0 482h20M120 482h20M0 483h20M120 483h20M0 484h20M120 484h20M0 485h20M120 485h20M0 486h20M120 486h20M0 487h20M120 487h20M0 488h20M120 488h20M0 489h20M120 489h20M0 490h20M120 490h20M0 491h20M120 491h20M0 492h20M120 492h20M0 493h20M120 493h20M0 494h20M120 494h20M0 495h20M120 495h20M0 496h20M120 496h20M0 497h20M120 497h20M0 498h20M120 498h20M0 499h20M120 499h20M0 500h20M120 500h20M0 501h20M120 501h20M0 502h20M120 502h20M0 503h20M120 503h20M0 504h20M120 504h20M0 505h20M120 505h20M0 506h20M120 506h20M0 507h20M120 507h20M0 508h20M120 508h20M0 509h20M120 509h20M0 510h20M120 510h20M0 511h20M120 511h20M0 512h20M120 512h20M0 513h20M120 513h20M0 514h20M120 514h20M0 515h20M120 515h20M0 516h20M120 516h20M0 517h20M120 517h20M0 518h20M120 518h20M0 519h20M120 519h20M20 520h20M100 520h20M20 521h20M100 521h20M20 522h20M100 522h20M20 523h20M100 523h20M20 524h20M100 524h20M20 525h20M100 525h20M20 526h20M100 526h20M20 527h20M100 527h20M20 528h20M100 528h20M20 529h20M100 529h20M20 530h20M100 530h20M20 531h20M100 531h20M20 532h20M100 532h20M20 533h20M100 533h20M20 534h20M100 534h20M20 535h20M100 535h20M20 536h20M100 536h20M20 537h20M100 537h20M20 538h20M100 538h20M20 539h20M100 539h20M40 540h60M40 541h60M40 542h60M40 543h60M40 544h60M40 545h60M40 546h60M40 547h60M40 548h60M40 549h60M40 550h60M40 551h60M40 552h60M40 553h60M40 554h60M40 555h60M40 556h60M40 557h60M40 558h60M40 559h60" />
<path stroke="#000000" d="M560 30h20M560 31h20M560 32h20M560 33h20M560 34h20M560 35h20M560 36h20M560 37h20M560 38h20M560 39h20M480 40h80M480 41h80M480 42h80M480 43h80M480 44h80M480 45h80M480 46h80M480 47h80M480 48h80M480 49h80M480 50h80M580 50h20M480 51h80M580 51h20M480 52h80M580 52h20M480 53h80M580 53h20M480 54h80M580 54h20M480 55h80M580 55h20M480 56h80M580 56h20M480 57h80M580 57h20M480 58h80M580 58h20M480 59h80M580 59h20M460 60h40M560 60h20M460 61h40M560 61h20M460 62h40M560 62h20M460 63h40M560 63h20M460 64h40M560 64h20M460 65h40M560 65h20M460 66h40M560 66h20M460 67h40M560 67h20M460 68h40M560 68h20M460 69h40M560 69h20M460 70h40M560 70h20M600 70h20M460 71h40M560 71h20M600 71h20M460 72h40M560 72h20M600 72h20M460 73h40M560 73h20M600 73h20M460 74h40M560 74h20M600 74h20M460 75h40M560 75h20M600 75h20M460 76h40M560 76h20M600 76h20M460 77h40M560 77h20M600 77h20M460 78h40M560 78h20M600 78h20M460 79h40M560 79h20M600 79h20M440 80h40M580 80h20M440 81h40M580 81h20M440 82h40M580 82h20M440 83h40M580 83h20M440 84h40M580 84h20M440 85h40M580 85h20M440 86h40M580 86h20M440 87h40M580 87h20M440 88h40M580 88h20M440 89h40M580 89h20M440 90h40M580 90h20M620 90h20M440 91h40M580 91h20M620 91h20M440 92h40M580 92h20M620 92h20M440 93h40M580 93h20M620 93h20M440 94h40M580 94h20M620 94h20M440 95h40M580 95h20M620 95h20M440 96h40M580 96h20M620 96h20M440 97h40M580 97h20M620 97h20M440 98h40M580 98h20M620 98h20M440 99h40M580 99h20M620 99h20M440 100h20M540 100h20M620 100h20M440 101h20M540 101h20M620 101h20M440 102h20M540 102h20M620 102h20M440 103h20M540 103h20M620 103h20M440 104h20M540 104h20M620 104h20M440 105h20M540 105h20M620 105h20M440 106h20M540 106h20M620 106h20M440 107h20M540 107h20M620 107h20M440 108h20M540 108h20M620 108h20M440 109h20M540 109h20M620 109h20M440 110h20M540 110h20M620 110h20M440 111h20M540 111h20M620 111h20M440 112h20M540 112h20M620 112h20M440 113h20M540 113h20M620 113h20M440 114h20M540 114h20M620 114h20M440 115h20M540 115h20M620 115h20M440 116h20M540 116h20M620 116h20M440 117h20M540 117h20M620 117h20M440 118h20M540 118h20M620 118h20M440 119h20M540 119h20M620 119h20M440 120h20M620 120h20M440 121h20M620 121h20M440 122h20M620 122h20M440 123h20M620 123h20M440 124h20M620 124h20M440 125h20M620 125h20M440 126h20M620 126h20M440 127h20M620 127h20M440 128h20M620 128h20M440 129h20M620 129h20M440 130h20M620 130h20M440 131h20M620 131h20M440 132h20M620 132h20M440 133h20M620 133h20M440 134h20M620 134h20M440 135h20M620 135h20M440 136h20M620 136h20M440 137h20M620 137h20M440 138h20M620 138h20M440 139h20M620 139h20M220 140h100M360 140h20M440 140h20M620 140h20M220 141h100M360 141h20M440 141h20M620 141h20M220 142h100M360 142h20M440 142h20M620 142h20M220 143h100M360 143h20M440 143h20M620 143h20M220 144h100M360 144h20M440 144h20M620 144h20M220 145h100M360 145h20M440 145h20M620 145h20M220 146h100M360 146h20M440 146h20M620 146h20M220 147h100M360 147h20M440 147h20M620 147h20M220 148h100M360 148h20M440 148h20M620 148h20M220 149h100M360 149h20M440 149h20M620 149h20M220 150h100M360 150h20M440 150h20M620 150h20M220 151h100M360 151h20M440 151h20M620 151h20M220 152h100M360 152h20M440 152h20M620 152h20M220 153h100M360 153h20M440 153h20M620 153h20M220 154h100M360 154h20M440 154h20M620 154h20M220 155h100M360 155h20M440 155h20M620 155h20M220 156h100M360 156h20M440 156h20M620 156h20M220 157h100M360 157h20M440 157h20M620 157h20M220 158h100M360 158h20M440 158h20M620 158h20M220 159h100M360 159h20M440 159h20M620 159h20M180 160h60M330 160h30M380 160h20M420 160h20M600 160h40M180 161h60M330 161h30M380 161h20M420 161h20M600 161h40M180 162h60M330 162h30M380 162h20M420 162h20M600 162h40M180 163h60M330 163h30M380 163h20M420 163h20M600 163h40M180 164h60M330 164h30M380 164h20M420 164h20M600 164h40M180 165h60M330 165h30M380 165h20M420 165h20M600 165h40M180 166h60M330 166h30M380 166h20M420 166h20M600 166h40M180 167h60M330 167h30M380 167h20M420 167h20M600 167h40M180 168h60M330 168h30M380 168h20M420 168h20M600 168h40M180 169h60M330 169h30M380 169h20M420 169h20M600 169h40M180 170h60M330 170h30M380 170h20M420 170h20M600 170h40M180 171h60M330 171h30M380 171h20M420 171h20M600 171h40M180 172h60M330 172h30M380 172h20M420 172h20M600 172h40M180 173h60M330 173h30M380 173h20M420 173h20M600 173h40M180 174h60M330 174h30M380 174h20M420 174h20M600 174h40M180 175h60M330 175h30M380 175h20M420 175h20M600 175h40M180 176h60M330 176h30M380 176h20M420 176h20M600 176h40M180 177h60M330 177h30M380 177h20M420 177h20M600 177h40M180 178h60M330 178h30M380 178h20M420 178h20M600 178h40M180 179h60M330 179h30M380 179h20M420 179h20M600 179h40M160 180h40M360 180h20M400 180h20M440 180h20M580 180h40M160 181h40M360 181h20M400 181h20M440 181h20M580 181h40M160 182h40M360 182h20M400 182h20M440 182h20M580 182h40M160 183h40M360 183h20M400 183h20M440 183h20M580 183h40M160 184h40M360 184h20M400 184h20M440 184h20M580 184h40M160 185h40M360 185h20M400 185h20M440 185h20M580 185h40M160 186h40M360 186h20M400 186h20M440 186h20M580 186h40M160 187h40M360 187h20M400 187h20M440 187h20M580 187h40M160 188h40M360 188h20M400 188h20M440 188h20M580 188h40M160 189h40M360 189h20M400 189h20M440 189h20M580 189h40M160 190h40M360 190h20M400 190h20M440 190h20M580 190h40M160 191h40M360 191h20M400 191h20M440 191h20M580 191h40M160 192h40M360 192h20M400 192h20M440 192h20M580 192h40M160 193h40M360 193h20M400 193h20M440 193h20M580 193h40M160 194h40M360 194h20M400 194h20M440 194h20M580 194h40M160 195h40M360 195h20M400 195h20M440 195h20M580 195h40M160 196h40M360 196h20M400 196h20M440 196h20M580 196h40M160 197h40M360 197h20M400 197h20M440 197h20M580 197h40M160 198h40M360 198h20M400 198h20M440 198h20M580 198h40M160 199h40M360 199h20M400 199h20M440 199h20M580 199h40M140 200h40M380 200h20M460 200h20M560 200h40M140 201h40M380 201h20M460 201h20M560 201h40M140 202h40M380 202h20M460 202h20M560 202h40M140 203h40M380 203h20M460 203h20M560 203h40M140 204h40M380 204h20M460 204h20M560 204h40M140 205h40M380 205h20M460 205h20M560 205h40M140 206h40M380 206h20M460 206h20M560 206h40M140 207h40M380 207h20M460 207h20M560 207h40M140 208h40M380 208h20M460 208h20M560 208h40M140 209h40M380 209h20M460 209h20M560 209h40M140 210h40M380 210h20M460 210h20M560 210h40M140 211h40M380 211h20M460 211h20M560 211h40M140 212h40M380 212h20M460 212h20M560 212h40M140 213h40M380 213h20M460 213h20M560 213h40M140 214h40M380 214h20M460 214h20M560 214h40M140 215h40M380 215h20M460 215h20M560 215h40M140 216h40M380 216h20M460 216h20M560 216h40M140 217h40M380 217h20M460 217h20M560 217h40M140 218h40M380 218h20M460 218h20M560 218h40M140 219h40M380 219h20M460 219h20M560 219h40M140 220h20M340 220h20M380 220h20M420 220h20M480 220h100M140 221h20M340 221h20M380 221h20M420 221h20M480 221h100M140 222h20M340 222h20M380 222h20M420 222h20M480 222h100M140 223h20M340 223h20M380 223h20M420 223h20M480 223h100M140 224h20M340 224h20M380 224h20M420 224h20M480 224h100M140 225h20M340 225h20M380 225h20M420 225h20M480 225h100M140 226h20M340 226h20M380 226h20M420 226h20M480 226h100M140 227h20M340 227h20M380 227h20M420 227h20M480 227h100M140 228h20M340 228h20M380 228h20M420 228h20M480 228h100M140 229h20M340 229h20M380 229h20M420 229h20M480 229h100M140 230h20M340 230h20M380 230h20M420 230h20M480 230h100M140 231h20M340 231h20M380 231h20M420 231h20M480 231h100M140 232h20M340 232h20M380 232h20M420 232h20M480 232h100M140 233h20M340 233h20M380 233h20M420 233h20M480 233h100M140 234h20M340 234h20M380 234h20M420 234h20M480 234h100M140 235h20M340 235h20M380 235h20M420 235h20M480 235h100M140 236h20M340 236h20M380 236h20M420 236h20M480 236h100M140 237h20M340 237h20M380 237h20M420 237h20M480 237h100M140 238h20M340 238h20M380 238h20M420 238h20M480 238h100M140 239h20M340 239h20M380 239h20M420 239h20M480 239h100M120 240h20M360 240h20M400 240h20M440 240h20M120 241h20M360 241h20M400 241h20M440 241h20M120 242h20M360 242h20M400 242h20M440 242h20M120 243h20M360 243h20M400 243h20M440 243h20M120 244h20M360 244h20M400 244h20M440 244h20M120 245h20M360 245h20M400 245h20M440 245h20M120 246h20M360 246h20M400 246h20M440 246h20M120 247h20M360 247h20M400 247h20M440 247h20M120 248h20M360 248h20M400 248h20M440 248h20M120 249h20M360 249h20M400 249h20M440 249h20M120 250h20M360 250h20M400 250h20M440 250h20M120 251h20M360 251h20M400 251h20M440 251h20M120 252h20M360 252h20M400 252h20M440 252h20M120 253h20M360 253h20M400 253h20M440 253h20M120 254h20M360 254h20M400 254h20M440 254h20M120 255h20M360 255h20M400 255h20M440 255h20M120 256h20M360 256h20M400 256h20M440 256h20M120 257h20M360 257h20M400 257h20M440 257h20M120 258h20M360 258h20M400 258h20M440 258h20M120 259h20M360 259h20M400 259h20M440 259h20M120 260h20M440 260h20M120 261h20M440 261h20M120 262h20M440 262h20M120 263h20M440 263h20M120 264h20M440 264h20M120 265h20M440 265h20M120 266h20M440 266h20M120 267h20M440 267h20M120 268h20M440 268h20M120 269h20M440 269h20M120 270h20M440 270h20M120 271h20M440 271h20M120 272h20M440 272h20M120 273h20M440 273h20M120 274h20M440 274h20M120 275h20M440 275h20M120 276h20M440 276h20M120 277h20M440 277h20M120 278h20M440 278h20M120 279h20M440 279h20M120 280h20M440 280h20M120 281h20M440 281h20M120 282h20M440 282h20M120 283h20M440 283h20M120 284h20M440 284h20M120 285h20M440 285h20M120 286h20M440 286h20M120 287h20M440 287h20M120 288h20M440 288h20M120 289h20M440 289h20M120 290h20M440 290h20M120 291h20M440 291h20M120 292h20M440 292h20M120 293h20M440 293h20M120 294h20M440 294h20M120 295h20M440 295h20M120 296h20M440 296h20M120 297h20M440 297h20M120 298h20M440 298h20M120 299h20M440 299h20M120 300h20M440 300h20M120 301h20M440 301h20M120 302h20M440 302h20M120 303h20M440 303h20M120 304h20M440 304h20M120 305h20M440 305h20M120 306h20M440 306h20M120 307h20M440 307h20M120 308h20M440 308h20M120 309h20M440 309h20M120 310h20M440 310h20M120 311h20M440 311h20M120 312h20M440 312h20M120 313h20M440 313h20M120 314h20M440 314h20M120 315h20M440 315h20M120 316h20M440 316h20M120 317h20M440 317h20M120 318h20M440 318h20M120 319h20M440 319h20M120 320h20M440 320h20M120 321h20M440 321h20M120 322h20M440 322h20M120 323h20M440 323h20M120 324h20M440 324h20M120 325h20M440 325h20M120 326h20M440 326h20M120 327h20M440 327h20M120 328h20M440 328h20M120 329h20M440 329h20M120 330h20M440 330h20M120 331h20M440 331h20M120 332h20M440 332h20M120 333h20M440 333h20M120 334h20M440 334h20M120 335h20M440 335h20M120 336h20M440 336h20M120 337h20M440 337h20M120 338h20M440 338h20M120 339h20M440 339h20M140 340h20M420 340h20M140 341h20M420 341h20M140 342h20M420 342h20M140 343h20M420 343h20M140 344h20M420 344h20M140 345h20M420 345h20M140 346h20M420 346h20M140 347h20M420 347h20M140 348h20M420 348h20M140 349h20M420 349h20M140 350h20M420 350h20M140 351h20M420 351h20M140 352h20M420 352h20M140 353h20M420 353h20M140 354h20M420 354h20M140 355h20M420 355h20M140 356h20M420 356h20M140 357h20M420 357h20M140 358h20M420 358h20M140 359h20M420 359h20M140 360h20M420 360h20M140 361h20M420 361h20M140 362h20M420 362h20M140 363h20M420 363h20M140 364h20M420 364h20M140 365h20M420 365h20M140 366h20M420 366h20M140 367h20M420 367h20M140 368h20M420 368h20M140 369h20M420 369h20M140 370h20M420 370h20M140 371h20M420 371h20M140 372h20M420 372h20M140 373h20M420 373h20M140 374h20M420 374h20M140 375h20M420 375h20M140 376h20M420 376h20M140 377h20M420 377h20M140 378h20M420 378h20M140 379h20M420 379h20M160 380h20M400 380h20M160 381h20M400 381h20M160 382h20M400 382h20M160 383h20M400 383h20M160 384h20M400 384h20M160 385h20M400 385h20M160 386h20M400 386h20M160 387h20M400 387h20M160 388h20M400 388h20M160 389h20M400 389h20M160 390h20M400 390h20M160 391h20M400 391h20M160 392h20M400 392h20M160 393h20M400 393h20M160 394h20M400 394h20M160 395h20M400 395h20M160 396h20M400 396h20M160 397h20M400 397h20M160 398h20M400 398h20M160 399h20M400 399h20M180 400h20M380 400h20M180 401h20M380 401h20M180 402h20M380 402h20M180 403h20M380 403h20M180 404h20M380 404h20M180 405h20M380 405h20M180 406h20M380 406h20M180 407h20M380 407h20M180 408h20M380 408h20M180 409h20M380 409h20M180 410h20M380 410h20M180 411h20M380 411h20M180 412h20M380 412h20M180 413h20M380 413h20M180 414h20M380 414h20M180 415h20M380 415h20M180 416h20M380 416h20M180 417h20M380 417h20M180 418h20M380 418h20M180 419h20M380 419h20M360 420h20M360 421h20M360 422h20M360 423h20M360 424h20M360 425h20M360 426h20M360 427h20M360 428h20M360 429h20M360 430h20M360 431h20M360 432h20M360 433h20M360 434h20M360 435h20M360 436h20M360 437h20M360 438h20M360 439h20M40 440h60M200 440h20M320 440h40M40 441h60M200 441h20M320 441h40M40 442h60M200 442h20M320 442h40M40 443h60M200 443h20M320 443h40M40 444h60M200 444h20M320 444h40M40 445h60M200 445h20M320 445h40M40 446h60M200 446h20M320 446h40M40 447h60M200 447h20M320 447h40M40 448h60M200 448h20M320 448h40M40 449h60M200 449h20M320 449h40M40 450h60M200 450h20M320 450h40M40 451h60M200 451h20M320 451h40M40 452h60M200 452h20M320 452h40M40 453h60M200 453h20M320 453h40M40 454h60M200 454h20M320 454h40M40 455h60M200 455h20M320 455h40M40 456h60M200 456h20M320 456h40M40 457h60M200 457h20M320 457h40M40 458h60M200 458h20M320 458h40M40 459h60M200 459h20M320 459h40M20 460h40M100 460h20M220 460h100M20 461h40M100 461h20M220 461h100M20 462h40M100 462h20M220 462h100M20 463h40M100 463h20M220 463h100M20 464h40M100 464h20M220 464h100M20 465h40M100 465h20M220 465h100M20 466h40M100 466h20M220 466h100M20 467h40M100 467h20M220 467h100M20 468h40M100 468h20M220 468h100M20 469h40M100 469h20M220 469h100M20 470h40M100 470h20M220 470h100M20 471h40M100 471h20M220 471h100M20 472h40M100 472h20M220 472h100M20 473h40M100 473h20M220 473h100M20 474h40M100 474h20M220 474h100M20 475h40M100 475h20M220 475h100M20 476h40M100 476h20M220 476h100M20 477h40M100 477h20M220 477h100M20 478h40M100 478h20M220 478h100M20 479h40M100 479h20M220 479h100M20 480h20M100 480h20M140 480h20M20 481h20M100 481h20M140 481h20M20 482h20M100 482h20M140 482h20M20 483h20M100 483h20M140 483h20M20 484h20M100 484h20M140 484h20M20 485h20M100 485h20M140 485h20M20 486h20M100 486h20M140 486h20M20 487h20M100 487h20M140 487h20M20 488h20M100 488h20M140 488h20M20 489h20M100 489h20M140 489h20M20 490h20M100 490h20M140 490h20M20 491h20M100 491h20M140 491h20M20 492h20M100 492h20M140 492h20M20 493h20M100 493h20M140 493h20M20 494h20M100 494h20M140 494h20M20 495h20M100 495h20M140 495h20M20 496h20M100 496h20M140 496h20M20 497h20M100 497h20M140 497h20M20 498h20M100 498h20M140 498h20M20 499h20M100 499h20M140 499h20M20 500h20M140 500h20M20 501h20M140 501h20M20 502h20M140 502h20M20 503h20M140 503h20M20 504h20M140 504h20M20 505h20M140 505h20M20 506h20M140 506h20M20 507h20M140 507h20M20 508h20M140 508h20M20 509h20M140 509h20M20 510h20M140 510h20M20 511h20M140 511h20M20 512h20M140 512h20M20 513h20M140 513h20M20 514h20M140 514h20M20 515h20M140 515h20M20 516h20M140 516h20M20 517h20M140 517h20M20 518h20M140 518h20M20 519h20M140 519h20M0 520h20M120 520h40M0 521h20M120 521h40M0 522h20M120 522h40M0 523h20M120 523h40M0 524h20M120 524h40M0 525h20M120 525h40M0 526h20M120 526h40M0 527h20M120 527h40M0 528h20M120 528h40M0 529h20M120 529h40M0 530h20M120 530h40M0 531h20M120 531h40M0 532h20M120 532h40M0 533h20M120 533h40M0 534h20M120 534h40M0 535h20M120 535h40M0 536h20M120 536h40M0 537h20M120 537h40M0 538h20M120 538h40M0 539h20M120 539h40M20 540h20M100 540h40M20 541h20M100 541h40M20 542h20M100 542h40M20 543h20M100 543h40M20 544h20M100 544h40M20 545h20M100 545h40M20 546h20M100 546h40M20 547h20M100 547h40M20 548h20M100 548h40M20 549h20M100 549h40M20 550h20M100 550h40M20 551h20M100 551h40M20 552h20M100 552h40M20 553h20M100 553h40M20 554h20M100 554h40M20 555h20M100 555h40M20 556h20M100 556h40M20 557h20M100 557h40M20 558h20M100 558h40M20 559h20M100 559h40M40 560h80M40 561h80M40 562h80M40 563h80M40 564h80M40 565h80M40 566h80M40 567h80M40 568h80M40 569h80M40 570h80M40 571h80M40 572h80M40 573h80M40 574h80M40 575h80M40 576h80M40 577h80M40 578h80M40 579h80" />
</svg>